<svg width="82" height="63" viewBox="0 0 82 63" fill="none" xmlns="http://www.w3.org/2000/svg">
<path fill-rule="evenodd" clip-rule="evenodd" d="M29.3145 25.955C29.3677 25.799 29.3965 25.6317 29.3965 25.4577C29.3965 24.6071 28.707 23.9175 27.8563 23.9175C27.0057 23.9175 26.3161 24.6071 26.3161 25.4577C26.3161 26.3083 27.0057 26.9979 27.8563 26.9979C28.2462 26.9979 28.6022 26.853 28.8735 26.6142L32.5495 29.3402L32.6546 29.4181H32.7854H37.67V28.626H32.9162L29.3145 25.955ZM27.8563 26.1559C27.4707 26.1559 27.1581 25.8433 27.1581 25.4577C27.1581 25.072 27.4707 24.7594 27.8563 24.7594C28.242 24.7594 28.5546 25.072 28.5546 25.4577C28.5546 25.8433 28.242 26.1559 27.8563 26.1559Z" fill="url(#paint0_linear_2044_4299)"/>
<path fill-rule="evenodd" clip-rule="evenodd" d="M24.2408 41.08C24.0661 40.4212 23.4657 39.9357 22.7519 39.9357C21.9013 39.9357 21.2117 40.6253 21.2117 41.4759C21.2117 42.3265 21.9013 43.0161 22.7519 43.0161C23.4656 43.0161 24.0659 42.5308 24.2407 41.8721H31.3325V41.08H24.2408ZM22.7519 40.7777C22.3663 40.7777 22.0537 41.0903 22.0537 41.4759C22.0537 41.8616 22.3663 42.1742 22.7519 42.1742C23.1376 42.1742 23.4502 41.8616 23.4502 41.4759C23.4502 41.0903 23.1376 40.7777 22.7519 40.7777Z" fill="url(#paint1_linear_2044_4299)"/>
<path fill-rule="evenodd" clip-rule="evenodd" d="M19.861 37.8242C19.7183 37.1211 19.0967 36.592 18.3516 36.592C17.5009 36.592 16.8114 37.2815 16.8114 38.1322C16.8114 38.9828 17.5009 39.6724 18.3516 39.6724C19.0331 39.6724 19.6112 39.2297 19.8141 38.6163H26.6687H26.8862L27.0029 38.4328L28.7344 35.7119H35.5139V34.9198H28.517H28.2996L28.1828 35.1032L26.4513 37.8242H19.861ZM18.3516 37.4339C17.9659 37.4339 17.6533 37.7465 17.6533 38.1322C17.6533 38.5178 17.9659 38.8304 18.3516 38.8304C18.7372 38.8304 19.0498 38.5178 19.0498 38.1322C19.0498 37.7465 18.7372 37.4339 18.3516 37.4339Z" fill="url(#paint2_linear_2044_4299)"/>
<path fill-rule="evenodd" clip-rule="evenodd" d="M20.0163 29.9903C19.8415 30.6491 19.2412 31.1346 18.5274 31.1346C17.6768 31.1346 16.9872 30.445 16.9872 29.5944C16.9872 28.7438 17.6768 28.0542 18.5274 28.0542C19.2411 28.0542 19.8413 28.5396 20.0162 29.1982H26.6903H26.9044L27.0217 29.3774L28.8627 32.1906H37.6257V32.9827H28.6485H28.4344L28.3171 32.8035L26.4761 29.9903H20.0163ZM18.5274 30.2927C18.1418 30.2927 17.8292 29.98 17.8292 29.5944C17.8292 29.2088 18.1418 28.8961 18.5274 28.8961C18.9131 28.8961 19.2257 29.2088 19.2257 29.5944C19.2257 29.98 18.9131 30.2927 18.5274 30.2927Z" fill="url(#paint3_linear_2044_4299)"/>
<path fill-rule="evenodd" clip-rule="evenodd" d="M55.118 25.9556C55.0646 25.7994 55.0357 25.6319 55.0357 25.4577C55.0357 24.6071 55.7253 23.9175 56.5759 23.9175C57.4265 23.9175 58.1161 24.6071 58.1161 25.4577C58.1161 26.3083 57.4265 26.9979 56.5759 26.9979C56.1862 26.9979 55.8304 26.8532 55.5591 26.6146L51.8837 29.3402L51.7786 29.4181H51.6478H46.7632V28.626H51.517L55.118 25.9556ZM56.5759 26.1559C56.9615 26.1559 57.2742 25.8433 57.2742 25.4577C57.2742 25.072 56.9615 24.7594 56.5759 24.7594C56.1902 24.7594 55.8776 25.072 55.8776 25.4577C55.8776 25.8433 56.1902 26.1559 56.5759 26.1559Z" fill="url(#paint4_linear_2044_4299)"/>
<path fill-rule="evenodd" clip-rule="evenodd" d="M60.1917 41.0798C60.3664 40.421 60.9668 39.9355 61.6805 39.9355C62.5312 39.9355 63.2207 40.625 63.2207 41.4757C63.2207 42.3263 62.5312 43.0159 61.6805 43.0159C60.9669 43.0159 60.3666 42.5305 60.1918 41.8719H53.1V41.0798H60.1917ZM61.6805 40.7774C62.0662 40.7774 62.3788 41.09 62.3788 41.4757C62.3788 41.8613 62.0662 42.1739 61.6805 42.1739C61.2949 42.1739 60.9823 41.8613 60.9823 41.4757C60.9823 41.09 61.2949 40.7774 61.6805 40.7774Z" fill="url(#paint5_linear_2044_4299)"/>
<path fill-rule="evenodd" clip-rule="evenodd" d="M64.5713 37.8234C64.714 37.1204 65.3356 36.5912 66.0807 36.5912C66.9313 36.5912 67.6209 37.2808 67.6209 38.1314C67.6209 38.9821 66.9313 39.6716 66.0807 39.6716C65.3992 39.6716 64.8211 39.229 64.6181 38.6155H57.7635H57.5461L57.4294 38.4321L55.6979 35.7112H48.9184V34.9191H55.9153H56.1327L56.2494 35.1025L57.9809 37.8234H64.5713ZM66.0807 37.4332C66.4663 37.4332 66.779 37.7458 66.779 38.1314C66.779 38.5171 66.4663 38.8297 66.0807 38.8297C65.6951 38.8297 65.3824 38.5171 65.3824 38.1314C65.3824 37.7458 65.6951 37.4332 66.0807 37.4332Z" fill="url(#paint6_linear_2044_4299)"/>
<path fill-rule="evenodd" clip-rule="evenodd" d="M64.4151 29.9903C64.5898 30.6491 65.1902 31.1346 65.904 31.1346C66.7546 31.1346 67.4442 30.445 67.4442 29.5944C67.4442 28.7438 66.7546 28.0542 65.904 28.0542C65.1903 28.0542 64.59 28.5396 64.4152 29.1982H57.7401H57.526L57.4087 29.3774L55.5677 32.1906H46.8047V32.9827H55.7819H55.996L56.1133 32.8035L57.9543 29.9903H64.4151ZM65.904 30.2927C66.2896 30.2927 66.6022 29.98 66.6022 29.5944C66.6022 29.2088 66.2896 28.8961 65.904 28.8961C65.5183 28.8961 65.2057 29.2088 65.2057 29.5944C65.2057 29.98 65.5183 30.2927 65.904 30.2927Z" fill="url(#paint7_linear_2044_4299)"/>
<path d="M55.9249 47.1104L45.6806 28.4689V17.6931C46.4324 17.2653 46.9408 16.4566 46.9408 15.532C46.9408 14.1624 45.8261 13.0476 44.4564 13.0476H37.5434C36.1738 13.0476 35.059 14.1623 35.059 15.532C35.059 16.4566 35.5674 17.2653 36.3192 17.6931V28.4689L26.0749 47.1104C25.2972 48.5247 25.3238 50.1982 26.1455 51.5873C26.9672 52.9764 28.421 53.806 30.0355 53.806H51.9644C53.5788 53.806 55.0328 52.9765 55.8544 51.5873C56.6759 50.1982 56.7026 48.5247 55.9249 47.1104ZM53.995 50.4878C53.5658 51.213 52.8068 51.6457 51.9643 51.6457H30.0354C29.1929 51.6457 28.4339 51.213 28.0047 50.4878C27.5763 49.7627 27.5625 48.8891 27.968 48.151L38.4795 29.0235V18.0164V16.7783C38.4795 16.2689 38.0667 15.856 37.5573 15.856C37.3945 15.856 37.2462 15.7424 37.2228 15.5814C37.2104 15.4951 37.2311 15.4163 37.2739 15.352C37.3322 15.2648 37.4316 15.2079 37.5433 15.2079H44.4563C44.568 15.2079 44.6674 15.2648 44.7257 15.352C44.763 15.4079 44.7835 15.4748 44.78 15.5482C44.7716 15.723 44.6176 15.8561 44.4423 15.8561C43.933 15.8561 43.5201 16.269 43.5201 16.7784V18.0165V29.0235L54.0316 48.151C54.4371 48.889 54.4234 49.7626 53.995 50.4878Z" fill="#3B6BFF"/>
<g clip-path="url(#clip0_2044_4299)">
<path d="M45.6419 2.24513L41.1468 -0.154297L38.7473 4.34082L43.2424 6.74025L45.6419 2.24513Z" fill="url(#paint8_linear_2044_4299)"/>
<g filter="url(#filter0_d_2044_4299)">
<path d="M42.9045 3.61126C42.9612 3.7737 42.9538 3.95805 42.8676 4.12146L42.851 4.15293C42.6869 4.464 42.3008 4.58239 41.9904 4.41671L41.9767 4.40938L41.7437 4.78255L41.3793 4.58657L41.6153 4.21647L41.4672 4.13741L41.2342 4.50818L40.8814 4.2926L41.1058 3.9445L41.0214 3.89947L40.8422 3.8038L41.0333 3.44147L41.2125 3.53713L41.4421 3.10188L41.6334 2.73939L41.8402 2.34741L41.6609 2.25175L41.8522 1.88928L42.0314 1.98494L42.1157 2.02997L42.3512 1.6077L42.704 1.80368L42.4771 2.22288L42.6253 2.30195L42.8477 1.86248L43.2091 2.05845L42.9857 2.49655C43.2603 2.66523 43.3613 3.0217 43.2091 3.31026L43.1934 3.34004C43.1275 3.46506 43.0241 3.55716 42.9045 3.61126ZM42.4896 3.96002L42.5062 3.92855C42.565 3.81714 42.5223 3.67842 42.4112 3.61911L42.3645 3.5942L41.8036 3.29478L41.574 3.73003L41.6507 3.77102L42.1816 4.05436C42.2927 4.11367 42.4309 4.0713 42.4896 3.96002ZM42.2016 2.54031L41.9948 2.9323L42.5557 3.23172C42.6554 3.2849 42.7793 3.24701 42.832 3.14712L42.8477 3.11734C42.9004 3.01744 42.8622 2.89294 42.7625 2.83975L42.2784 2.58131L42.2016 2.54031Z" fill="white"/>
</g>
</g>
<path d="M53.4006 48.4966L50.2767 42.812C48.4382 43.5199 43.0252 45.0019 37.1289 40.9152C37.1289 40.9152 34.8743 38.9134 33.8914 38.8665L28.5986 48.4972C28.317 49.01 28.3271 49.6169 28.6245 50.1203C28.9227 50.6236 29.4497 50.9247 30.0352 50.9247H51.9641C52.5495 50.9247 53.0766 50.6236 53.3748 50.1203C53.672 49.6169 53.6821 49.01 53.4006 48.4966Z" fill="url(#paint9_linear_2044_4299)"/>
<path d="M44.281 41.994C45.98 41.994 47.3573 40.6166 47.3573 38.9176C47.3573 37.2186 45.98 35.8413 44.281 35.8413C42.582 35.8413 41.2047 37.2186 41.2047 38.9176C41.2047 40.6166 42.582 41.994 44.281 41.994Z" fill="url(#paint10_linear_2044_4299)"/>
<path d="M39.4556 36.842C40.3279 36.842 41.035 36.1349 41.035 35.2626C41.035 34.3903 40.3279 33.6831 39.4556 33.6831C38.5833 33.6831 37.8761 34.3903 37.8761 35.2626C37.8761 36.1349 38.5833 36.842 39.4556 36.842Z" fill="url(#paint11_linear_2044_4299)"/>
<path d="M43.2188 34.818C43.8054 34.818 44.281 34.3424 44.281 33.7558C44.281 33.1692 43.8054 32.6936 43.2188 32.6936C42.6322 32.6936 42.1566 33.1692 42.1566 33.7558C42.1566 34.3424 42.6322 34.818 43.2188 34.818Z" fill="url(#paint12_linear_2044_4299)"/>
<path d="M42.2197 7.48524C42.2197 7.07133 41.8842 6.73584 41.4703 6.73584C41.0563 6.73584 40.7209 7.07133 40.7209 7.48524C40.7209 7.89915 41.0563 8.23464 41.4703 8.23464C41.8842 8.23464 42.2197 7.89915 42.2197 7.48524Z" fill="url(#paint13_linear_2044_4299)"/>
<path d="M38.5594 9.52134C39.1631 9.52134 39.6525 9.03195 39.6525 8.42827C39.6525 7.82459 39.1631 7.33521 38.5594 7.33521C37.9557 7.33521 37.4663 7.82459 37.4663 8.42827C37.4663 9.03195 37.9557 9.52134 38.5594 9.52134Z" fill="url(#paint14_linear_2044_4299)"/>
<path d="M42.9872 10.641C42.9872 9.8025 42.3075 9.1228 41.4691 9.1228C40.6306 9.1228 39.9509 9.8025 39.9509 10.641C39.9509 11.4794 40.6306 12.159 41.4691 12.159C42.3075 12.1591 42.9872 11.4794 42.9872 10.641Z" fill="url(#paint15_linear_2044_4299)"/>
<path d="M23.6205 56.6579H27.1158V57.2918H25.6881V60.95H25.0482V57.2918H23.6205V56.6579ZM27.659 56.6579H30.9882V57.2918H28.2959V60.3131H30.9882V60.95H27.659V56.6579ZM28.6581 58.3995H30.9882V59.0333H28.6581V58.3995ZM31.776 56.6579H32.4129V60.95H31.776V56.6579ZM33.261 56.6579H33.8979V58.3965H34.2148L35.9171 56.6579H36.7955L34.7189 58.7798L36.9253 60.95H36.0349L34.085 59.0333H33.8979V60.95H33.261V56.6579ZM37.4686 57.8652C37.4686 57.6419 37.5259 57.4397 37.6406 57.2586C37.7573 57.0754 37.9122 56.9296 38.1054 56.8209C38.2986 56.7122 38.5129 56.6579 38.7483 56.6579H39.7534C39.9888 56.6579 40.2031 56.7122 40.3963 56.8209C40.5915 56.9296 40.7464 57.0754 40.8611 57.2586C40.9758 57.4397 41.0332 57.6419 41.0332 57.8652V59.7426C41.0332 59.964 40.9758 60.1662 40.8611 60.3493C40.7464 60.5324 40.5915 60.6783 40.3963 60.787C40.2031 60.8956 39.9888 60.95 39.7534 60.95H38.7483C38.5129 60.95 38.2986 60.8956 38.1054 60.787C37.9122 60.6783 37.7573 60.5324 37.6406 60.3493C37.5259 60.1662 37.4686 59.964 37.4686 59.7426V57.8652ZM38.1054 59.7456C38.1054 59.9026 38.1678 60.0374 38.2925 60.1501C38.4193 60.2608 38.5712 60.3161 38.7483 60.3161H39.7534C39.9325 60.3161 40.0844 60.2608 40.2092 60.1501C40.3339 60.0374 40.3963 59.9026 40.3963 59.7456V57.8622C40.3963 57.7053 40.3339 57.5715 40.2092 57.4608C40.0844 57.3481 39.9325 57.2918 39.7534 57.2918H38.7483C38.5712 57.2918 38.4193 57.3481 38.2925 57.4608C38.1678 57.5715 38.1054 57.7053 38.1054 57.8622V59.7456ZM41.8813 56.6579H42.5152V59.7487C42.5152 59.9056 42.5705 60.0394 42.6812 60.1501C42.7918 60.2608 42.9246 60.3161 43.0796 60.3161H45.2075V60.95H43.0796C42.8603 60.95 42.659 60.8966 42.4759 60.79C42.2948 60.6813 42.1499 60.5364 42.0413 60.3553C41.9346 60.1722 41.8813 59.97 41.8813 59.7487V56.6579ZM46.9853 56.6579H47.7791L49.3154 60.95H48.6363L48.1685 59.6581H46.9702L47.1996 59.0243H47.9391L47.3837 57.491L46.1281 60.95H45.449L46.9853 56.6579ZM49.8617 56.6579H52.1224C52.3217 56.6579 52.5017 56.7052 52.6627 56.7998C52.8237 56.8943 52.9515 57.0211 53.046 57.1801C53.1426 57.339 53.1909 57.5171 53.1909 57.7143V57.995C53.1909 58.2747 53.1104 58.487 52.9495 58.6319C53.0923 58.7245 53.196 58.8351 53.2603 58.9639C53.3247 59.0907 53.3569 59.2496 53.3569 59.4408V59.9147C53.3569 60.1038 53.3086 60.2769 53.2121 60.4338C53.1175 60.5908 52.9897 60.7165 52.8287 60.8111C52.6677 60.9037 52.4897 60.95 52.2945 60.95H49.8617V56.6579ZM52.3005 60.3131C52.4172 60.3131 52.5168 60.2738 52.5993 60.1954C52.6818 60.1149 52.7231 60.0183 52.7231 59.9056V59.4317C52.7231 59.3191 52.6818 59.2225 52.5993 59.142C52.5168 59.0615 52.4162 59.0213 52.2975 59.0213H50.8608V58.3874H52.1224C52.2412 58.3874 52.3428 58.3492 52.4273 58.2727C52.5138 58.1942 52.5571 58.0997 52.5571 57.989V57.7143C52.5571 57.5976 52.5138 57.498 52.4273 57.4155C52.3428 57.333 52.2412 57.2918 52.1224 57.2918H50.4986V60.3131H52.3005ZM54.0511 57.6962C54.0511 57.5051 54.0984 57.331 54.193 57.174C54.2896 57.0171 54.4184 56.8923 54.5793 56.7998C54.7423 56.7052 54.9214 56.6579 55.1166 56.6579H57.3381V57.2918H55.1166C54.9999 57.2918 54.8993 57.333 54.8148 57.4155C54.7303 57.498 54.688 57.5976 54.688 57.7143V58.0101C54.688 58.1168 54.7303 58.2083 54.8148 58.2848C54.8993 58.3612 54.9999 58.3995 55.1166 58.3995H56.4839C56.6811 58.3995 56.8602 58.4468 57.0212 58.5413C57.1821 58.6339 57.3099 58.7597 57.4045 58.9186C57.5011 59.0756 57.5494 59.2496 57.5494 59.4408V59.9086C57.5494 60.0998 57.5011 60.2749 57.4045 60.4338C57.3099 60.5908 57.1821 60.7165 57.0212 60.8111C56.8602 60.9037 56.6811 60.95 56.4839 60.95H54.0542V60.3131H56.4839C56.6026 60.3131 56.7032 60.2738 56.7857 60.1954C56.8702 60.1149 56.9125 60.0183 56.9125 59.9056V59.4438C56.9125 59.3311 56.8702 59.2345 56.7857 59.1541C56.7032 59.0736 56.6026 59.0333 56.4839 59.0333H55.1166C54.9214 59.0333 54.7423 58.9881 54.5793 58.8975C54.4184 58.8049 54.2896 58.6812 54.193 58.5262C54.0984 58.3713 54.0511 58.2003 54.0511 58.0131V57.6962Z" fill="url(#paint16_linear_2044_4299)"/>
<defs>
<filter id="filter0_d_2044_4299" x="40.6854" y="1.60767" width="2.75146" height="3.48837" filterUnits="userSpaceOnUse" color-interpolation-filters="sRGB">
<feFlood flood-opacity="0" result="BackgroundImageFix"/>
<feColorMatrix in="SourceAlpha" type="matrix" values="0 0 0 0 0 0 0 0 0 0 0 0 0 0 0 0 0 0 127 0" result="hardAlpha"/>
<feOffset dy="0.156782"/>
<feGaussianBlur stdDeviation="0.0783912"/>
<feComposite in2="hardAlpha" operator="out"/>
<feColorMatrix type="matrix" values="0 0 0 0 0 0 0 0 0 0 0 0 0 0 0 0 0 0 0.64 0"/>
<feBlend mode="normal" in2="BackgroundImageFix" result="effect1_dropShadow_2044_4299"/>
<feBlend mode="normal" in="SourceGraphic" in2="effect1_dropShadow_2044_4299" result="shape"/>
</filter>
<linearGradient id="paint0_linear_2044_4299" x1="30.4115" y1="22.9987" x2="34.5543" y2="29.4104" gradientUnits="userSpaceOnUse">
<stop stop-color="#68ACFF"/>
<stop offset="0.2291" stop-color="#65A7FF"/>
<stop offset="0.4985" stop-color="#5B99FF"/>
<stop offset="0.787" stop-color="#4A81FF"/>
<stop offset="1" stop-color="#3B6BFF"/>
</linearGradient>
<linearGradient id="paint1_linear_2044_4299" x1="24.8623" y1="43.5306" x2="26.6361" y2="39.161" gradientUnits="userSpaceOnUse">
<stop stop-color="#68ACFF"/>
<stop offset="0.2291" stop-color="#65A7FF"/>
<stop offset="0.4985" stop-color="#5B99FF"/>
<stop offset="0.787" stop-color="#4A81FF"/>
<stop offset="1" stop-color="#3B6BFF"/>
</linearGradient>
<linearGradient id="paint2_linear_2044_4299" x1="23.5574" y1="40.4662" x2="25.9445" y2="33.4226" gradientUnits="userSpaceOnUse">
<stop stop-color="#68ACFF"/>
<stop offset="0.2291" stop-color="#65A7FF"/>
<stop offset="0.4985" stop-color="#5B99FF"/>
<stop offset="0.787" stop-color="#4A81FF"/>
<stop offset="1" stop-color="#3B6BFF"/>
</linearGradient>
<linearGradient id="paint3_linear_2044_4299" x1="24.4315" y1="27.231" x2="26.7862" y2="34.6243" gradientUnits="userSpaceOnUse">
<stop stop-color="#68ACFF"/>
<stop offset="0.2291" stop-color="#65A7FF"/>
<stop offset="0.4985" stop-color="#5B99FF"/>
<stop offset="0.787" stop-color="#4A81FF"/>
<stop offset="1" stop-color="#3B6BFF"/>
</linearGradient>
<linearGradient id="paint4_linear_2044_4299" x1="54.0211" y1="22.9987" x2="49.8781" y2="29.4101" gradientUnits="userSpaceOnUse">
<stop stop-color="#68ACFF"/>
<stop offset="0.2291" stop-color="#65A7FF"/>
<stop offset="0.4985" stop-color="#5B99FF"/>
<stop offset="0.787" stop-color="#4A81FF"/>
<stop offset="1" stop-color="#3B6BFF"/>
</linearGradient>
<linearGradient id="paint5_linear_2044_4299" x1="59.5702" y1="43.5304" x2="57.7964" y2="39.1607" gradientUnits="userSpaceOnUse">
<stop stop-color="#68ACFF"/>
<stop offset="0.2291" stop-color="#65A7FF"/>
<stop offset="0.4985" stop-color="#5B99FF"/>
<stop offset="0.787" stop-color="#4A81FF"/>
<stop offset="1" stop-color="#3B6BFF"/>
</linearGradient>
<linearGradient id="paint6_linear_2044_4299" x1="60.8749" y1="40.4655" x2="58.4878" y2="33.4219" gradientUnits="userSpaceOnUse">
<stop stop-color="#68ACFF"/>
<stop offset="0.2291" stop-color="#65A7FF"/>
<stop offset="0.4985" stop-color="#5B99FF"/>
<stop offset="0.787" stop-color="#4A81FF"/>
<stop offset="1" stop-color="#3B6BFF"/>
</linearGradient>
<linearGradient id="paint7_linear_2044_4299" x1="59.9995" y1="27.231" x2="57.6449" y2="34.6243" gradientUnits="userSpaceOnUse">
<stop stop-color="#68ACFF"/>
<stop offset="0.2291" stop-color="#65A7FF"/>
<stop offset="0.4985" stop-color="#5B99FF"/>
<stop offset="0.787" stop-color="#4A81FF"/>
<stop offset="1" stop-color="#3B6BFF"/>
</linearGradient>
<linearGradient id="paint8_linear_2044_4299" x1="39.9471" y1="2.09339" x2="44.4421" y2="4.49276" gradientUnits="userSpaceOnUse">
<stop stop-color="#FE745D"/>
<stop offset="0.176" stop-color="#FF7E52"/>
<stop offset="0.3436" stop-color="#FD8E44"/>
<stop offset="0.5223" stop-color="#FB9B34"/>
<stop offset="0.6732" stop-color="#FAA02E"/>
<stop offset="0.8128" stop-color="#F9A230"/>
<stop offset="0.9218" stop-color="#F9BF34"/>
<stop offset="1" stop-color="#F8D138"/>
</linearGradient>
<linearGradient id="paint9_linear_2044_4299" x1="28.3947" y1="44.8958" x2="53.6047" y2="44.8958" gradientUnits="userSpaceOnUse">
<stop stop-color="#FE745D"/>
<stop offset="0.176" stop-color="#FF7E52"/>
<stop offset="0.3436" stop-color="#FD8E44"/>
<stop offset="0.5223" stop-color="#FB9B34"/>
<stop offset="0.6732" stop-color="#FAA02E"/>
<stop offset="0.8128" stop-color="#F9A230"/>
<stop offset="0.9218" stop-color="#F9BF34"/>
<stop offset="1" stop-color="#F8D138"/>
</linearGradient>
<linearGradient id="paint10_linear_2044_4299" x1="41.2048" y1="38.9178" x2="47.3573" y2="38.9178" gradientUnits="userSpaceOnUse">
<stop stop-color="#FE745D"/>
<stop offset="0.176" stop-color="#FF7E52"/>
<stop offset="0.3436" stop-color="#FD8E44"/>
<stop offset="0.5223" stop-color="#FB9B34"/>
<stop offset="0.6732" stop-color="#FAA02E"/>
<stop offset="0.8128" stop-color="#F9A230"/>
<stop offset="0.9218" stop-color="#F9BF34"/>
<stop offset="1" stop-color="#F8D138"/>
</linearGradient>
<linearGradient id="paint11_linear_2044_4299" x1="37.8762" y1="35.2626" x2="41.035" y2="35.2626" gradientUnits="userSpaceOnUse">
<stop stop-color="#FE745D"/>
<stop offset="0.176" stop-color="#FF7E52"/>
<stop offset="0.3436" stop-color="#FD8E44"/>
<stop offset="0.5223" stop-color="#FB9B34"/>
<stop offset="0.6732" stop-color="#FAA02E"/>
<stop offset="0.8128" stop-color="#F9A230"/>
<stop offset="0.9218" stop-color="#F9BF34"/>
<stop offset="1" stop-color="#F8D138"/>
</linearGradient>
<linearGradient id="paint12_linear_2044_4299" x1="42.1567" y1="33.7558" x2="44.281" y2="33.7558" gradientUnits="userSpaceOnUse">
<stop stop-color="#FE745D"/>
<stop offset="0.176" stop-color="#FF7E52"/>
<stop offset="0.3436" stop-color="#FD8E44"/>
<stop offset="0.5223" stop-color="#FB9B34"/>
<stop offset="0.6732" stop-color="#FAA02E"/>
<stop offset="0.8128" stop-color="#F9A230"/>
<stop offset="0.9218" stop-color="#F9BF34"/>
<stop offset="1" stop-color="#F8D138"/>
</linearGradient>
<linearGradient id="paint13_linear_2044_4299" x1="40.7209" y1="7.48527" x2="42.2197" y2="7.48527" gradientUnits="userSpaceOnUse">
<stop stop-color="#FE745D"/>
<stop offset="0.176" stop-color="#FF7E52"/>
<stop offset="0.3436" stop-color="#FD8E44"/>
<stop offset="0.5223" stop-color="#FB9B34"/>
<stop offset="0.6732" stop-color="#FAA02E"/>
<stop offset="0.8128" stop-color="#F9A230"/>
<stop offset="0.9218" stop-color="#F9BF34"/>
<stop offset="1" stop-color="#F8D138"/>
</linearGradient>
<linearGradient id="paint14_linear_2044_4299" x1="37.4663" y1="8.42824" x2="39.6525" y2="8.42824" gradientUnits="userSpaceOnUse">
<stop stop-color="#FE745D"/>
<stop offset="0.176" stop-color="#FF7E52"/>
<stop offset="0.3436" stop-color="#FD8E44"/>
<stop offset="0.5223" stop-color="#FB9B34"/>
<stop offset="0.6732" stop-color="#FAA02E"/>
<stop offset="0.8128" stop-color="#F9A230"/>
<stop offset="0.9218" stop-color="#F9BF34"/>
<stop offset="1" stop-color="#F8D138"/>
</linearGradient>
<linearGradient id="paint15_linear_2044_4299" x1="39.951" y1="10.641" x2="42.9872" y2="10.641" gradientUnits="userSpaceOnUse">
<stop stop-color="#FE745D"/>
<stop offset="0.176" stop-color="#FF7E52"/>
<stop offset="0.3436" stop-color="#FD8E44"/>
<stop offset="0.5223" stop-color="#FB9B34"/>
<stop offset="0.6732" stop-color="#FAA02E"/>
<stop offset="0.8128" stop-color="#F9A230"/>
<stop offset="0.9218" stop-color="#F9BF34"/>
<stop offset="1" stop-color="#F8D138"/>
</linearGradient>
<linearGradient id="paint16_linear_2044_4299" x1="41.0001" y1="54.9507" x2="41.0001" y2="62.9492" gradientUnits="userSpaceOnUse">
<stop stop-color="#F8D138"/>
<stop offset="0.0782" stop-color="#F9BF34"/>
<stop offset="0.1872" stop-color="#F9A230"/>
<stop offset="0.3268" stop-color="#FAA02E"/>
<stop offset="0.4777" stop-color="#FB9B34"/>
<stop offset="0.6564" stop-color="#FD8E44"/>
<stop offset="0.824" stop-color="#FF7E52"/>
<stop offset="1" stop-color="#FE745D"/>
</linearGradient>
<clipPath id="clip0_2044_4299">
<rect x="39.6471" y="0.745361" width="5.09543" height="5.09543" rx="2.54771" fill="white"/>
</clipPath>
</defs>
</svg>
